<svg role="img" aria-labelledby="clearleft-logo" width="150px"
  xmlns="http://www.w3.org/2000/svg"  viewBox="0 0 154 77">
 <title id="clearleft-logo">Clearleft</title>
 <style>
        .Logo-streak {
            mask-repeat: no-repeat;
            stroke-dasharray: 150% 150%;
            stroke-dashoffset: 150%;
        }
        .animateLogo-streak{
            animation: swipe 0.6s cubic-bezier(0.39, 0.575, 0.565, 1) 2s forwards;
        }
        @keyframes swipe {
            from {
              stroke-dashoffset: 150%;
            }
            to {
              stroke-dashoffset: 0%;
            }
        }
        </style>
 <path class="Logo-text" fill="var(--logo-text)" d="M152.5 27.5v5.4h-2.4c-5.5 0-8.6-3.3-8.6-9.3v-6.8h-7.4v16.1h-5.6V16.8h-3.1l-.1-4.6h3.1v-.6c0-6 3-9.3 8.6-9.3h2.4v5.4H137c-2 0-2.9 1.3-2.9 4v.6h7.4v-4l5.6-3.6v7.4h4v4.6h-4v6.8c0 2.7 1 4 2.9 4h2.5zM77 11.9h5.6v21H77v-2c-1.7 1.7-4 2.7-6.4 2.6-5.7 0-10.1-4.8-10.1-11s4.4-11 10.1-11c2.4-.1 4.7.8 6.4 2.5v-2.1zm0 10.5c0-3.5-2.4-6.1-5.6-6.1s-5.6 2.6-5.6 6.1 2.3 6.1 5.6 6.1S77 26 77 22.4zm12.9-8.7v-1.8h-5.4v21h5.6v-9.5c0-4.5.8-6.8 5-6.8h1.5v-5.4h-.2c-3 0-5.2.9-6.5 2.5zM98 32.8h5.6V2.4H98v30.4zM17 8.1c3.2 0 6.1 1.8 7.6 4.5l.1.2.2-.1 4.8-3.1.3-.1-.1-.2C27 5 22.2 2.4 17.1 2.4 8.6 2.3 1.6 9.1 1.5 17.5v.3c-.1 8.5 6.8 15.4 15.3 15.5h.3c5.1.1 9.9-2.5 12.8-6.7l.1-.2-5.2-3.4-.1.2c-1.6 2.7-4.5 4.4-7.6 4.5-5.2 0-9.2-4.3-9.2-9.8 0-4.8 3.4-9.8 9.1-9.8zm14.6 24.7h5.6V2.4h-5.6v30.4zm94-10.5c0 .6 0 1.1-.1 1.7v.5h-14.8c.5 2.5 2.8 4.3 5.4 4.1 2 0 3.9-.7 5.5-2l.4-.3 2.8 4-.3.3c-2.4 2-5.5 3.1-8.6 3-6.4 0-10.8-4.6-10.8-11.1s4.3-11.1 10.6-11.1c5.7-.2 9.8 4.4 9.9 10.9zm-5.7-2.2c-.6-2.5-2.2-3.9-4.5-3.9-2.4-.1-4.4 1.6-4.7 3.9h9.2zm-60.7 2.2c0 .6 0 1.1-.1 1.7v.5H44.3c.5 2.5 2.8 4.3 5.4 4.1 2 0 3.9-.7 5.5-2l.4-.3 2.8 4-.3.3c-2.4 2-5.5 3.1-8.6 3-6.4 0-10.8-4.6-10.8-11.1S43 11.2 49.2 11.2c5.9 0 10 4.6 10 11.1zm-5.6-2.2c-.6-2.5-2.2-3.9-4.5-3.9-2.4-.1-4.4 1.6-4.7 3.9h9.2z"></path>
 <clipPath id="mask">
  <path d="M151.8 44c-.2-1-1.1-1.6-2-1.4h-.1c-1.1.4-2.2.4-3.3.2-1.4-.2-2.9-.3-4.3-.5-2.4-.3-4.8-.5-7.2-.7-2.6-.2-5.3-.3-7.9-.5-2.5-.2-4.9-.4-7.4-.5-5.2-.3-10.5-.5-15.7-.6-4.4-.2-19.6-.3-23.9-.3-3.1 0-6.1.1-9.2.2-4.1 0-18.9.3-23 .6-4.3.2-8.7.4-13 .7-4 .3-8 .5-11.9.7-.9 0-1.8.1-2.7.3-2.4 0-4.4.2-6.5.3-1.7.1-3.4.1-5 .4v0c-.7 0-1-.4-2.1-.3s-2.1.5-2.1 1.1c-.5.1 0 .4-.6.5v.5c.4.2.6.4 0 .7v.2c.3-.1.4 0 .6.1v.4c-.4.2-.2.4-.1.5s.5.4.4.7c-.1.5.1 1 .5 1.3v.2c.1.7 1.1 1.3 1.2 2 .1.5 1 1 2.3.9 1.1-.1 1.5-.5 2.5-.7.2 0 .8-.1 1-.1 4.2-.3 8.5-.6 12.7-1 1.2-.1 2.6-.1 3.7-.3 1.5-.3 3.1-.3 4.6-.5 2.9-.3 5.8-.5 8.6-.5 2.4 0 4.8-.3 7.2-.4 1.3-.1 2.7.1 4-.1.5-.1 1-.1 1.6-.1 1.4.1 13.7-.1 15.1-.1 2.8 0 5.6-.1 8.4-.2 3.3-.1 17.4-.2 20.7 0 1.1 0 2.3.2 3.4.2 3.1-.2 6.2.1 9.3.2 2.7.1 5.4.3 8.1.4s5.2.2 7.8.5c1 .1 2.1.2 3.1.3.8.1 1.4-.2 2.2-.1 2 .3 4.1.5 6.2.6 1.1 0 2.2.1 3.2.3 1.6.3 3.1.5 4.7.7l1 .4c.9.4 1.8.5 2.8.3.5-.3.8-1 .6-1.6v-.2c.1-.2.2-.3.1-.5.3-.1.3-.2.2-.4.2-.6.7-1.1.4-1.7-.1-.2-.4-.6.4-.8v-.5c-.4 0-.4-.2-.5-.3-.2-.5-.1-1-.1-1.5zM78.3 45.3h-.2.2"></path>
 </clipPath>
 <path class="Logo-streak animateLogo-streak" clip-path="url(#mask)" fill-rule="evenodd" fill="none" stroke="var(--opaque)" stroke-width="13" d="M-1.1 49.4s50.4-6.3 81.9-6 77.1 4.6 77.1 4.6"></path>
 <path d="M31.819 72.0709H35.9624V70.4579H31.819V67.7647H36.3323V66.1369H30.1172V76.4955H36.4063V74.8677H31.819V72.0709Z" fill="white"/>
 <path d="M45.8515 76.6879C46.9465 76.6879 47.8344 76.4215 48.5003 75.874C49.181 75.3264 49.5214 74.5717 49.5214 73.6395C49.5954 72.648 49.0035 71.9377 48.4559 71.5086C48.2932 71.3754 48.0416 71.2274 47.7012 71.0942C47.3757 70.961 47.1241 70.8574 46.9317 70.7983C46.7542 70.7243 46.473 70.6355 46.0735 70.5023C44.4901 70.014 43.9869 69.6588 43.9869 68.8893C43.9869 68.105 44.6233 67.6019 45.6147 67.6019C46.6358 67.6019 47.3609 68.0902 47.79 69.0521L49.2254 68.2234C48.5595 66.8028 47.2721 65.9445 45.6147 65.9445C44.6972 65.9445 43.913 66.2109 43.2618 66.7584C42.6107 67.2911 42.2852 68.0162 42.2852 68.9337C42.2852 69.866 42.6255 70.5467 43.2914 71.0202C43.9869 71.479 44.4753 71.6713 45.4667 71.9673C46.3398 72.2337 46.9613 72.4852 47.3017 72.7072C47.642 72.9292 47.8196 73.2399 47.8196 73.6691C47.8196 74.483 47.1833 75.0305 45.8959 75.0305C44.5937 75.0305 43.7354 74.4534 43.321 73.2843L41.856 74.1426C42.4036 75.726 43.8538 76.6879 45.8515 76.6879Z" fill="white"/>
 <path d="M54.2373 66.1369V67.7647H57.1673V76.4955H58.8691V67.7647H61.7843V66.1369H54.2373Z" fill="white"/>
 <path d="M66.8663 74.4534C66.23 74.4534 65.7565 74.9565 65.7565 75.5632C65.7565 76.1699 66.2596 76.6731 66.8663 76.6731C67.4731 76.6731 67.9762 76.1699 67.9762 75.5632C67.9762 74.9565 67.4731 74.4534 66.8663 74.4534Z" fill="white"/>
 <path d="M88.6028 76.4955V74.8529H84.3114L86.6495 72.5148C87.8186 71.3162 88.4105 70.1915 88.4105 69.1409C88.4105 68.1494 88.0849 67.3799 87.4338 66.8028C86.7827 66.2257 85.9984 65.9445 85.0957 65.9445C83.6603 65.9445 82.4025 66.6696 81.7514 68.0458L83.1868 68.8893C83.6011 68.031 84.2374 67.6019 85.1105 67.6019C86.0428 67.6019 86.7087 68.1938 86.7087 69.2001C86.7087 69.8364 86.2648 70.6059 85.3917 71.479L81.781 75.1637V76.4955H88.6028Z" fill="white"/>
 <path d="M101.1 75.2229C101.825 74.2462 102.18 72.944 102.18 71.3162C102.18 69.6884 101.825 68.3862 101.1 67.4095C100.39 66.4329 99.3984 65.9445 98.111 65.9445C96.8236 65.9445 95.8321 66.4329 95.107 67.4095C94.3967 68.3862 94.0416 69.6884 94.0416 71.3162C94.0416 72.944 94.3967 74.2462 95.107 75.2229C95.8321 76.1995 96.8236 76.6879 98.111 76.6879C99.3984 76.6879 100.39 76.1995 101.1 75.2229ZM98.111 75.0305C96.5868 75.0305 95.7433 73.6987 95.7433 71.3162C95.7433 68.9337 96.5868 67.6019 98.111 67.6019C99.65 67.6019 100.479 68.9337 100.479 71.3162C100.479 73.6987 99.65 75.0305 98.111 75.0305Z" fill="white"/>
 <path d="M114.861 75.2229C115.586 74.2462 115.941 72.944 115.941 71.3162C115.941 69.6884 115.586 68.3862 114.861 67.4095C114.15 66.4329 113.159 65.9445 111.871 65.9445C110.584 65.9445 109.593 66.4329 108.867 67.4095C108.157 68.3862 107.802 69.6884 107.802 71.3162C107.802 72.944 108.157 74.2462 108.867 75.2229C109.593 76.1995 110.584 76.6879 111.871 76.6879C113.159 76.6879 114.15 76.1995 114.861 75.2229ZM111.871 75.0305C110.347 75.0305 109.504 73.6987 109.504 71.3162C109.504 68.9337 110.347 67.6019 111.871 67.6019C113.41 67.6019 114.239 68.9337 114.239 71.3162C114.239 73.6987 113.41 75.0305 111.871 75.0305Z" fill="white"/>
 <path d="M123.665 70.0436L123.843 67.7351H128.046V66.1369H122.274L121.875 71.7009H124.894C126.033 71.7009 126.788 72.3372 126.788 73.3583C126.788 74.3794 126.033 75.0305 124.864 75.0305C123.769 75.0305 123.088 74.5569 122.807 73.6247L121.342 74.4682C121.875 75.9036 123.221 76.6879 124.864 76.6879C125.885 76.6879 126.743 76.3919 127.439 75.8C128.134 75.2081 128.49 74.3942 128.49 73.3583C128.49 72.3224 128.149 71.5086 127.468 70.9314C126.788 70.3395 125.959 70.0436 124.968 70.0436H123.665Z" fill="white"/>
</svg>